<svg id="Capa_1" data-name="Capa 1" xmlns="http://www.w3.org/2000/svg" viewBox="0 0 140.66 47.87"><defs><style>.cls-1{fill:#ec1d32;}</style></defs><path class="cls-1" d="M1527.4,1134.56H1545v8.77h-28.53V1096h11Z" transform="translate(-1516.42 -1095.46)"/><path class="cls-1" d="M1554.44,1136.05h9.1v-23.88c0-1.17,0-2.4.1-3.68l-5.36,4.46a3.61,3.61,0,0,1-1,.6,3.13,3.13,0,0,1-1,.18,3,3,0,0,1-1.51-.38,3.09,3.09,0,0,1-1-.79l-3.19-4.23L1565.3,1096h8.32v40.1h7.8v7.28h-27Z" transform="translate(-1516.42 -1095.46)"/><path class="cls-1" d="M1600.59,1124.87a13.43,13.43,0,0,1-4.62-.83,12.5,12.5,0,0,1-4.17-2.51,12.81,12.81,0,0,1-3-4.26,14.56,14.56,0,0,1-1.17-6.08,15.58,15.58,0,0,1,1.19-6.08,14.84,14.84,0,0,1,3.38-5,16.3,16.3,0,0,1,5.24-3.4,18,18,0,0,1,6.83-1.25,18.9,18.9,0,0,1,6.86,1.17,14.63,14.63,0,0,1,5.12,3.28,14.4,14.4,0,0,1,3.21,5,17.61,17.61,0,0,1,1.12,6.41,24.36,24.36,0,0,1-.37,4.39,25.61,25.61,0,0,1-1,3.92,23.45,23.45,0,0,1-1.61,3.57,36.86,36.86,0,0,1-2.11,3.37l-10.21,14.49a4.85,4.85,0,0,1-2,1.59,7.32,7.32,0,0,1-3.16.65h-9.29l15-17.94c.31-.36.59-.72.87-1.05s.53-.68.79-1a12.7,12.7,0,0,1-3.18,1.17A16.3,16.3,0,0,1,1600.59,1124.87Zm10.33-14.43a8.33,8.33,0,0,0-.5-3,6.11,6.11,0,0,0-1.4-2.2,5.79,5.79,0,0,0-2.16-1.33,8.15,8.15,0,0,0-2.76-.46,6.46,6.46,0,0,0-2.71.54,5.79,5.79,0,0,0-2,1.48,6.69,6.69,0,0,0-1.27,2.23,8.56,8.56,0,0,0-.44,2.77q0,7.1,6.57,7.09a6.33,6.33,0,0,0,5-1.93A7.47,7.47,0,0,0,1610.92,1110.44Z" transform="translate(-1516.42 -1095.46)"/><path class="cls-1" d="M1641.21,1095.46a18.27,18.27,0,0,1,6.33,1,14.16,14.16,0,0,1,4.79,2.84,12.31,12.31,0,0,1,3,4.34,14.24,14.24,0,0,1,1.05,5.54,15.16,15.16,0,0,1-.73,4.81,18.44,18.44,0,0,1-2,4.21,29.06,29.06,0,0,1-2.94,3.87q-1.66,1.86-3.56,3.78l-9.26,9.49c1.19-.34,2.37-.62,3.53-.83a19.34,19.34,0,0,1,3.26-.31h8.84a3.56,3.56,0,0,1,2.57.9,3.07,3.07,0,0,1,.94,2.35v5.85h-33.28v-3.25a5.9,5.9,0,0,1,.39-2,4.81,4.81,0,0,1,1.37-2l13.65-13.75a42.2,42.2,0,0,0,3-3.35,20.88,20.88,0,0,0,2.15-3.13,14.94,14.94,0,0,0,1.27-3.09,12.42,12.42,0,0,0,.42-3.27,6.28,6.28,0,0,0-1.35-4.33,5.23,5.23,0,0,0-4.11-1.52,6.24,6.24,0,0,0-3.77,1.21,5.64,5.64,0,0,0-1.28,1.3,7,7,0,0,0-.87,1.62,4.58,4.58,0,0,1-1.31,2.11,3.28,3.28,0,0,1-2.16.65l-.7,0a7.06,7.06,0,0,1-.77-.1l-5.33-.94a17.92,17.92,0,0,1,2-6.17,14.78,14.78,0,0,1,3.68-4.39,14.94,14.94,0,0,1,5-2.62A20.86,20.86,0,0,1,1641.21,1095.46Z" transform="translate(-1516.42 -1095.46)"/></svg>